<?xml version="1.0" standalone="no"?>
<!DOCTYPE svg PUBLIC "-//W3C//DTD SVG 20010904//EN"
 "http://www.w3.org/TR/2001/REC-SVG-20010904/DTD/svg10.dtd">
<svg version="1.0" xmlns="http://www.w3.org/2000/svg"
 width="16.000000pt" height="16.000000pt" viewBox="0 0 16.000000 16.000000"
 preserveAspectRatio="xMidYMid meet">
<metadata>
Created by potrace 1.11, written by Peter Selinger 2001-2013
</metadata>
<g transform="translate(0.000000,16.000000) scale(0.002286,-0.002286)"
fill="#000000" stroke="none">
<path d="M1855 6482 c-27 -42 -98 -153 -157 -246 -60 -93 -115 -177 -123 -186
-8 -9 -15 -20 -15 -23 0 -4 -24 -44 -54 -90 -29 -45 -64 -100 -78 -122 l-25
-40 59 -150 c32 -83 113 -289 180 -460 66 -170 149 -384 185 -475 36 -91 96
-246 134 -345 39 -99 74 -189 79 -200 9 -20 29 -72 205 -525 47 -124 90 -234
95 -245 5 -11 43 -105 83 -210 375 -959 471 -1207 512 -1315 79 -212 131 -348
200 -522 215 -551 306 -785 341 -875 15 -40 30 -73 34 -73 3 0 79 199 169 443
462 1247 438 1181 452 1209 5 10 9 22 9 28 0 6 15 49 34 98 19 48 69 182 111
297 42 116 81 220 86 233 5 12 13 32 18 45 5 12 19 49 31 82 12 33 26 70 30
81 11 28 89 238 196 529 47 127 90 241 96 255 5 14 25 68 44 120 19 52 38 104
43 115 5 11 27 70 49 130 34 93 178 479 402 1080 237 634 240 646 230 665 -9
17 -292 412 -323 450 -7 8 -41 56 -76 105 -36 50 -67 92 -71 95 -3 3 -18 24
-34 47 -16 24 -34 47 -40 52 -8 7 -90 -15 -257 -70 -134 -44 -390 -127 -569
-185 -179 -58 -334 -109 -345 -114 -11 -5 -73 -25 -138 -46 l-118 -37 -72 21
c-40 12 -157 47 -262 78 -104 30 -296 86 -425 124 -394 115 -650 190 -754 221
-54 16 -104 29 -110 29 -6 0 -33 -35 -61 -78z"/>
</g>
</svg>
